<?xml version="1.0" encoding="utf-8"?>
<!-- Generator: Adobe Illustrator 27.0.0, SVG Export Plug-In . SVG Version: 6.00 Build 0)  -->
<svg version="1.1" id="Layer_1" xmlns="http://www.w3.org/2000/svg" xmlns:xlink="http://www.w3.org/1999/xlink" x="0px" y="0px"
	 viewBox="0 0 190.1 51.6" style="enable-background:new 0 0 190.1 51.6;" xml:space="preserve">
<style type="text/css">
	.st0{fill:#1485E2;}
	.st1{fill:#02204C;}
</style>
<path class="st0" d="M30,23.5c3.2-2.4,5.2-6.2,5.2-10.4h-3.9c0,4.3-3.1,8-7.1,8.9V2h-3.9v31.1c-2.9-4.4-7.2-7.9-12.3-9.6
	C11,21.1,13,17.3,13,13C13,5.8,7.2,0,0,0v3.9C5,3.9,9.1,8,9.1,13S5,22.1,0,22.1v0c0,0,0,0,0,0v3.9c11.1,0,20.2,9.1,20.2,20.2h3.9
	V26.2c10.2,1,18.2,9.6,18.2,20.1h3.9C46.3,35.7,39.4,26.7,30,23.5z"/>
<g>
	<g>
		<path class="st1" d="M52.8,46.1V29h2.1l0.9,3.2c0.6-1,1.4-1.9,2.4-2.5c1-0.6,2.2-0.9,3.7-0.9v3c-0.2,0-0.3,0-0.5,0s-0.3,0-0.5,0
			c-1.9,0.2-3.3,0.8-4.1,2c-0.8,1.2-1.2,2.8-1.2,4.9v7.3H52.8z"/>
		<path class="st1" d="M64.3,51.6v-2.5h1.2c0.8,0,1.5-0.1,1.9-0.2c0.4-0.1,0.8-0.4,1-0.8c0.3-0.4,0.5-1.1,0.8-1.9l-6.1-17h3.2
			l4.2,13.1l4.2-13.1h3.2l-6,17.8c-0.4,1.2-0.8,2.2-1.3,2.9c-0.4,0.7-1,1.2-1.7,1.5c-0.7,0.3-1.7,0.4-3,0.4H64.3z"/>
		<path class="st1" d="M82.9,46.5c-1.1,0-2.1-0.2-3-0.6c-0.9-0.4-1.6-0.9-2.1-1.7c-0.5-0.7-0.8-1.6-0.8-2.6c0-1.4,0.5-2.4,1.4-3.2
			c0.9-0.8,2.3-1.4,4-1.8c1.7-0.4,3.7-0.8,6.1-1c0-1.4-0.2-2.6-0.9-3.3c-0.6-0.8-1.6-1.2-3-1.2c-1,0-1.9,0.2-2.5,0.7
			c-0.7,0.5-1.1,1.1-1.3,1.9l-2.8-0.8c0.5-1.3,1.3-2.3,2.5-3c1.2-0.7,2.5-1.1,4.1-1.1c2.4,0,4.1,0.6,5.2,1.7
			c1.1,1.1,1.6,2.9,1.6,5.2v4c0,1.4,0.1,2.6,0.2,3.7c0.1,1,0.3,1.9,0.4,2.7h-2.6l-0.7-2.3c-0.5,0.8-1.2,1.5-2.2,2
			C85.6,46.2,84.4,46.5,82.9,46.5z M83.5,44.2c0.9,0,1.7-0.2,2.5-0.5c0.8-0.3,1.5-0.9,2-1.6c0.5-0.8,0.8-1.8,0.8-3.1v-1.1
			c-1.7,0.2-3.3,0.4-4.5,0.7c-1.3,0.3-2.3,0.6-3,1.1c-0.7,0.5-1,1.1-1,1.9c0,0.8,0.3,1.4,0.9,1.9C81.7,43.9,82.5,44.2,83.5,44.2z"/>
		<path class="st1" d="M94.2,46.1V29h2.1l0.8,2.6c0.5-0.8,1.2-1.5,2-2c0.9-0.5,2-0.8,3.5-0.8c2.1,0,3.5,0.6,4.4,1.8
			c0.8,1.2,1.3,2.8,1.3,4.7v10.8h-2.9v-9.9c0-0.9-0.1-1.7-0.2-2.4c-0.2-0.7-0.5-1.3-1-1.8c-0.5-0.5-1.4-0.7-2.5-0.7
			c-1.4,0-2.5,0.5-3.3,1.4c-0.8,1-1.2,2.3-1.2,4.2v9.2H94.2z"/>
	</g>
	<path class="st1" d="M111.1,46.1V23.1h2.9v13.6l6.9-7.7h3.5l-6.4,7l7.3,10h-3.5l-5.7-7.9l-2,2.2v5.7H111.1z"/>
	<path class="st1" d="M132.6,46.5c-1.8,0-3.3-0.4-4.5-1.2c-1.2-0.8-2.2-1.9-2.8-3.2c-0.7-1.3-1-2.8-1-4.5c0-1.8,0.4-3.4,1.1-4.7
		c0.7-1.3,1.7-2.3,3-3.1c1.2-0.7,2.6-1.1,4.2-1.1c1.4,0,2.5,0.3,3.6,0.8c1,0.5,1.9,1.3,2.6,2.2c0.7,0.9,1.2,1.9,1.5,3.1
		c0.3,1.1,0.4,2.3,0.3,3.5h-13.1c0,1.4,0.4,2.5,0.9,3.4c0.6,0.8,1.3,1.4,2.1,1.7c0.8,0.3,1.5,0.5,2.2,0.5c1,0,1.8-0.2,2.4-0.5
		c0.7-0.3,1.2-0.7,1.6-1.2l2.8,0.8c-0.6,1-1.5,1.8-2.6,2.4C135.6,46.2,134.2,46.5,132.6,46.5z M127.4,36h10c0-0.8-0.2-1.6-0.6-2.3
		c-0.4-0.7-1-1.3-1.7-1.8c-0.7-0.5-1.6-0.7-2.6-0.7c-0.8,0-1.6,0.2-2.4,0.5c-0.8,0.3-1.4,0.8-1.9,1.5C127.8,34,127.5,34.9,127.4,36z
		"/>
	<path class="st1" d="M146.6,46.1c-1.1,0-1.9-0.1-2.5-0.3c-0.6-0.2-1-0.6-1.2-1.3c-0.2-0.6-0.3-1.5-0.3-2.7V23.2h2.9v18.2
		c0,0.9,0.1,1.5,0.3,1.8c0.2,0.3,0.7,0.4,1.5,0.4h0.7v2.5H146.6z"/>
	<path class="st1" d="M154.8,46.1c-1.1,0-1.9-0.1-2.5-0.3c-0.6-0.2-1-0.6-1.2-1.3c-0.2-0.6-0.3-1.5-0.3-2.7V31.3h-2.9V29h2.9v-4.3
		h2.9V29h3.3v2.3h-3.3v10c0,0.9,0.1,1.5,0.3,1.8c0.2,0.3,0.7,0.4,1.5,0.4h1.5v2.5H154.8z"/>
	<path class="st1" d="M166.1,46.5c-1,0-2-0.2-2.9-0.5c-1-0.3-1.8-0.9-2.6-1.6c-0.8-0.7-1.4-1.6-1.9-2.8c-0.5-1.1-0.7-2.4-0.7-4
		c0-1.5,0.2-2.9,0.7-4c0.5-1.1,1.1-2,1.9-2.8c0.8-0.7,1.7-1.3,2.6-1.6c1-0.3,1.9-0.5,2.9-0.5c1,0,2,0.2,2.9,0.5
		c1,0.3,1.9,0.9,2.6,1.6c0.8,0.7,1.4,1.6,1.9,2.8c0.5,1.1,0.7,2.4,0.7,4c0,1.5-0.2,2.9-0.7,4c-0.5,1.1-1.1,2-1.9,2.8
		c-0.8,0.7-1.7,1.3-2.6,1.6C168,46.3,167,46.5,166.1,46.5z M166.1,43.9c0.8,0,1.6-0.2,2.4-0.7c0.8-0.4,1.4-1.1,1.9-2.1
		c0.5-0.9,0.8-2.1,0.8-3.6c0-1.5-0.3-2.7-0.8-3.6c-0.5-0.9-1.1-1.6-1.9-2.1c-0.8-0.4-1.6-0.7-2.4-0.7c-0.8,0-1.6,0.2-2.4,0.7
		c-0.8,0.4-1.4,1.1-1.9,2.1c-0.5,0.9-0.8,2.1-0.8,3.6c0,1.5,0.3,2.7,0.8,3.6c0.5,0.9,1.2,1.6,1.9,2.1
		C164.5,43.7,165.3,43.9,166.1,43.9z"/>
	<path class="st1" d="M176.1,46.1V29h2.1l0.8,2.6c0.5-0.8,1.2-1.5,2-2c0.9-0.5,2-0.8,3.5-0.8c2.1,0,3.5,0.6,4.4,1.8
		c0.8,1.2,1.3,2.8,1.3,4.7v10.8h-2.9v-9.9c0-0.9-0.1-1.7-0.2-2.4c-0.2-0.7-0.5-1.3-1-1.8c-0.5-0.5-1.4-0.7-2.5-0.7
		c-1.4,0-2.5,0.5-3.3,1.4c-0.8,1-1.2,2.3-1.2,4.2v9.2H176.1z"/>
</g>
</svg>
