<?xml version="1.0" encoding="utf-8"?>
<!-- Generator: Adobe Illustrator 27.0.0, SVG Export Plug-In . SVG Version: 6.00 Build 0)  -->
<svg version="1.1" id="Layer_1" xmlns="http://www.w3.org/2000/svg" xmlns:xlink="http://www.w3.org/1999/xlink" x="0px" y="0px"
	 viewBox="0 0 206.2 52.1" style="enable-background:new 0 0 206.2 52.1;" xml:space="preserve">
<style type="text/css">
	.st0{fill:#F2FAFF;}
</style>
<path class="st0" d="M196.8,39c1.8-1.4,3-3.5,3-6h-2.3c0,2.5-1.8,4.6-4.1,5.1v-23c5.9,0.6,10.5,5.5,10.5,11.6h2.3
	c0-6.1-3.9-11.2-9.4-13.1c1.8-1.4,3-3.5,3-6h-2.3c0,2.5-1.8,4.6-4.1,5.1V1.1h-2.3V19c-1.7-2.6-4.2-4.5-7.1-5.5c1.8-1.4,3-3.5,3-6
	c0-4.1-3.4-7.5-7.5-7.5s-7.5,3.4-7.5,7.5c0,2.4,1.2,4.6,3,6c-2.9,1-5.4,3-7.1,5.5V1.1h-2.3v11.5c-2.3-0.5-4.1-2.6-4.1-5.1h-2.3
	c0,2.4,1.2,4.6,3,6c-3.7,1.3-6.7,4.1-8.2,7.7c-1.5-3.6-4.5-6.4-8.2-7.7c1.8-1.4,3-3.5,3-6h-2.3c0,2.5-1.8,4.6-4.1,5.1V1.1h-2.3V19
	c-1.7-2.6-4.2-4.5-7.1-5.5c1.8-1.4,3-3.5,3-6c0-4.1-3.4-7.5-7.5-7.5s-7.5,3.4-7.5,7.5c0,2.4,1.2,4.6,3,6c-2.9,1-5.4,3-7.1,5.5V1.1
	h-2.3v11.5c-2.3-0.5-4.1-2.6-4.1-5.1h-2.3c0,2.4,1.2,4.6,3,6c-3.7,1.3-6.7,4.1-8.2,7.7c-1.5-3.6-4.5-6.4-8.2-7.7c1.8-1.4,3-3.5,3-6
	h-2.3c0,2.5-1.8,4.6-4.1,5.1V1.1h-2.3V19c-1.7-2.6-4.2-4.5-7.1-5.5c1.8-1.4,3-3.5,3-6c0-4.1-3.4-7.5-7.5-7.5c-4.1,0-7.5,3.4-7.5,7.5
	c0,2.4,1.2,4.6,3,6c-2.9,1-5.4,3-7.1,5.5V1.1h-2.3v11.5c-2.3-0.5-4.1-2.6-4.1-5.1h-2.3c0,2.4,1.2,4.6,3,6c-3.7,1.3-6.7,4.1-8.2,7.7
	c-1.5-3.6-4.5-6.4-8.2-7.7c1.8-1.4,3-3.5,3-6h-2.3c0,2.5-1.8,4.6-4.1,5.1V1.1h-2.3V19c-1.7-2.6-4.2-4.5-7.1-5.5c1.8-1.4,3-3.5,3-6
	c0-4.1-3.4-7.5-7.5-7.5c-4.1,0-7.5,3.4-7.5,7.5c0,2.4,1.2,4.6,3,6c-2.9,1-5.4,3-7.1,5.5V1.1h-2.3v11.5c-2.3-0.5-4.1-2.6-4.1-5.1H6.4
	c0,2.4,1.2,4.6,3,6C3.9,15.4,0,20.5,0,26.6h2.3c0-6,4.6-11,10.5-11.6v23c-2.3-0.5-4.1-2.6-4.1-5.1H6.4c0,2.5,1.2,4.6,3,6
	C3.9,40.9,0,46,0,52.1h2.3c0-6,4.6-11,10.5-11.6v11.6H15c0-6.4,5.2-11.6,11.6-11.6c6.4,0,11.6,5.2,11.6,11.6h2.3V40.5
	C46.4,41.1,51,46.1,51,52.1h2.3c0-6,4.6-11,10.5-11.6v11.6H66c0-6.4,5.2-11.6,11.6-11.6c6.4,0,11.6,5.2,11.6,11.6h2.3V40.5
	c5.9,0.6,10.5,5.5,10.5,11.6h2.3c0-6,4.6-11,10.5-11.6v11.6h2.3c0-6.4,5.2-11.6,11.6-11.6s11.6,5.2,11.6,11.6h2.3V40.5
	c5.9,0.6,10.5,5.5,10.5,11.6h2.3c0-6,4.6-11,10.5-11.6v11.6h2.3c0-6.4,5.2-11.6,11.6-11.6c6.4,0,11.6,5.2,11.6,11.6h2.3V40.5
	c5.9,0.6,10.5,5.5,10.5,11.6h2.3C206.2,46,202.3,40.9,196.8,39z M174.3,7.5c0-2.9,2.3-5.2,5.2-5.2s5.2,2.3,5.2,5.2s-2.3,5.2-5.2,5.2
	S174.3,10.4,174.3,7.5z M123.4,7.5c0-2.9,2.3-5.2,5.2-5.2s5.2,2.3,5.2,5.2s-2.3,5.2-5.2,5.2S123.4,10.4,123.4,7.5z M72.4,7.5
	c0-2.9,2.4-5.2,5.2-5.2c2.9,0,5.2,2.3,5.2,5.2s-2.4,5.2-5.2,5.2C74.7,12.7,72.4,10.4,72.4,7.5z M21.4,7.5c0-2.9,2.4-5.2,5.2-5.2
	c2.9,0,5.2,2.3,5.2,5.2s-2.3,5.2-5.2,5.2C23.7,12.7,21.4,10.4,21.4,7.5z M26.6,38.2c-2.9,0-5.2-2.3-5.2-5.2s2.4-5.2,5.2-5.2
	c2.9,0,5.2,2.3,5.2,5.2S29.5,38.2,26.6,38.2z M38.2,44.5C36.6,42,34.1,40,31.1,39c1.8-1.4,3-3.5,3-6c0-4.1-3.4-7.5-7.5-7.5
	c-4.1,0-7.5,3.4-7.5,7.5c0,2.5,1.2,4.6,3,6c-2.9,1-5.4,3-7.1,5.5V26.6C15,20.2,20.2,15,26.6,15c6.4,0,11.6,5.2,11.6,11.6V44.5z
	 M63.7,38.1c-2.3-0.5-4.1-2.6-4.1-5.1h-2.3c0,2.5,1.2,4.6,3,6c-3.7,1.3-6.7,4.1-8.2,7.7c-1.5-3.6-4.5-6.4-8.2-7.7c1.8-1.4,3-3.5,3-6
	h-2.3c0,2.5-1.8,4.6-4.1,5.1v-23C46.4,15.6,51,20.6,51,26.6h2.3c0-6,4.6-11,10.5-11.6V38.1z M77.6,38.2c-2.9,0-5.2-2.3-5.2-5.2
	s2.4-5.2,5.2-5.2c2.9,0,5.2,2.3,5.2,5.2S80.5,38.2,77.6,38.2z M89.2,44.5C87.5,42,85.1,40,82.1,39c1.8-1.4,3-3.5,3-6
	c0-4.1-3.4-7.5-7.5-7.5c-4.1,0-7.5,3.4-7.5,7.5c0,2.5,1.2,4.6,3,6c-2.9,1-5.4,3-7.1,5.5V26.6C66,20.2,71.2,15,77.6,15
	c6.4,0,11.6,5.2,11.6,11.6V44.5z M114.7,38.1c-2.3-0.5-4.1-2.6-4.1-5.1h-2.3c0,2.5,1.2,4.6,3,6c-3.7,1.3-6.7,4.1-8.2,7.7
	c-1.5-3.6-4.5-6.4-8.2-7.7c1.8-1.4,3-3.5,3-6h-2.3c0,2.5-1.8,4.6-4.1,5.1v-23c5.9,0.6,10.5,5.5,10.5,11.6h2.3c0-6,4.6-11,10.5-11.6
	V38.1z M128.6,38.2c-2.9,0-5.2-2.3-5.2-5.2s2.3-5.2,5.2-5.2s5.2,2.3,5.2,5.2S131.5,38.2,128.6,38.2z M140.2,44.5
	c-1.7-2.6-4.2-4.5-7.1-5.5c1.8-1.4,3-3.5,3-6c0-4.1-3.4-7.5-7.5-7.5s-7.5,3.4-7.5,7.5c0,2.5,1.2,4.6,3,6c-2.9,1-5.4,3-7.1,5.5V26.6
	c0-6.4,5.2-11.6,11.6-11.6s11.6,5.2,11.6,11.6V44.5z M165.7,38.1c-2.3-0.5-4.1-2.6-4.1-5.1h-2.3c0,2.5,1.2,4.6,3,6
	c-3.7,1.3-6.7,4.1-8.2,7.7c-1.5-3.6-4.5-6.4-8.2-7.7c1.8-1.4,3-3.5,3-6h-2.3c0,2.5-1.8,4.6-4.1,5.1v-23c5.9,0.6,10.5,5.5,10.5,11.6
	h2.3c0-6,4.6-11,10.5-11.6V38.1z M179.6,38.2c-2.9,0-5.2-2.3-5.2-5.2s2.3-5.2,5.2-5.2s5.2,2.3,5.2,5.2S182.5,38.2,179.6,38.2z
	 M191.2,44.5c-1.7-2.6-4.2-4.5-7.1-5.5c1.8-1.4,3-3.5,3-6c0-4.1-3.4-7.5-7.5-7.5s-7.5,3.4-7.5,7.5c0,2.5,1.2,4.6,3,6
	c-2.9,1-5.4,3-7.1,5.5V26.6c0-6.4,5.2-11.6,11.6-11.6c6.4,0,11.6,5.2,11.6,11.6V44.5z"/>
</svg>
