<?xml version="1.0" encoding="utf-8"?>
<!-- Generator: Adobe Illustrator 27.0.0, SVG Export Plug-In . SVG Version: 6.00 Build 0)  -->
<svg version="1.1" id="Layer_1" xmlns="http://www.w3.org/2000/svg" xmlns:xlink="http://www.w3.org/1999/xlink" x="0px" y="0px"
	 viewBox="0 0 123.8 25.7" style="enable-background:new 0 0 123.8 25.7;" xml:space="preserve">
<style type="text/css">
	.st0{fill:#1485E2;}
	.st1{fill:#02204C;}
</style>
<g>
	<path class="st0" d="M0,20.7V5.3h1.9l0.8,2.8C3.3,7.2,4,6.5,4.9,5.9c0.9-0.6,2-0.9,3.3-0.9v2.7c-0.1,0-0.3,0-0.4,0
		c-0.2,0-0.3,0-0.4,0c-1.8,0.1-3,0.8-3.7,1.8c-0.7,1.1-1,2.6-1,4.5v6.6H0z"/>
	<path class="st0" d="M10.3,25.7v-2.3h1.1c0.7,0,1.3-0.1,1.7-0.2c0.4-0.1,0.7-0.4,0.9-0.7c0.2-0.4,0.5-1,0.7-1.7L9.2,5.4H12
		l3.8,11.8l3.8-11.8h2.8l-5.5,16c-0.4,1.1-0.7,2-1.1,2.6c-0.4,0.6-0.9,1.1-1.5,1.3c-0.6,0.3-1.5,0.4-2.7,0.4H10.3z"/>
	<path class="st0" d="M27.1,21.1c-1,0-1.9-0.2-2.7-0.5c-0.8-0.4-1.4-0.9-1.9-1.5c-0.5-0.7-0.7-1.5-0.7-2.4c0-1.2,0.4-2.2,1.3-2.9
		c0.9-0.7,2.1-1.2,3.6-1.6c1.6-0.4,3.4-0.7,5.5-0.9c0-1.3-0.2-2.3-0.8-3c-0.6-0.7-1.5-1.1-2.7-1.1c-0.9,0-1.7,0.2-2.3,0.6
		c-0.6,0.4-1,1-1.1,1.7l-2.5-0.7C23.2,7.6,24,6.7,25,6.1c1.1-0.7,2.3-1,3.7-1c2.1,0,3.7,0.5,4.7,1.5c1,1,1.5,2.6,1.5,4.7v3.6
		c0,1.3,0.1,2.4,0.2,3.3c0.1,0.9,0.2,1.8,0.4,2.5H33l-0.6-2.1c-0.5,0.8-1.1,1.4-2,1.8C29.6,20.8,28.5,21.1,27.1,21.1z M27.7,19
		c0.8,0,1.6-0.1,2.3-0.4c0.7-0.3,1.3-0.8,1.8-1.5c0.5-0.7,0.7-1.6,0.7-2.8v-1c-1.6,0.2-2.9,0.4-4.1,0.6c-1.2,0.2-2,0.6-2.7,1
		c-0.6,0.4-0.9,1-0.9,1.7c0,0.7,0.3,1.3,0.8,1.7C26,18.8,26.8,19,27.7,19z"/>
	<path class="st0" d="M37.3,20.7V5.3h1.9l0.7,2.3c0.4-0.7,1-1.3,1.8-1.8c0.8-0.5,1.8-0.7,3.1-0.7c1.9,0,3.2,0.5,3.9,1.6
		c0.8,1.1,1.1,2.5,1.1,4.3v9.7h-2.6v-8.9c0-0.8-0.1-1.5-0.2-2.2c-0.1-0.7-0.5-1.2-0.9-1.6c-0.5-0.4-1.2-0.6-2.2-0.6
		c-1.3,0-2.3,0.4-3,1.3c-0.7,0.9-1.1,2.1-1.1,3.8v8.3H37.3z"/>
</g>
<path class="st1" d="M52.6,20.7V0h2.6v12.2l6.2-6.9h3.1l-5.8,6.3l6.6,9h-3.2L57,13.6l-1.8,2v5.1H52.6z"/>
<path class="st1" d="M72,21.1c-1.6,0-3-0.4-4.1-1.1c-1.1-0.7-2-1.7-2.6-2.9s-0.9-2.6-0.9-4.1c0-1.6,0.3-3,1-4.2
	c0.7-1.2,1.6-2.1,2.7-2.8c1.1-0.7,2.4-1,3.8-1c1.2,0,2.3,0.2,3.2,0.7c0.9,0.5,1.7,1.1,2.3,2c0.6,0.8,1.1,1.7,1.3,2.8
	c0.3,1,0.4,2.1,0.3,3.2H67.2c0,1.3,0.3,2.3,0.9,3c0.5,0.7,1.2,1.3,1.9,1.6c0.7,0.3,1.4,0.4,2,0.4c0.9,0,1.6-0.1,2.2-0.4
	c0.6-0.3,1.1-0.6,1.4-1.1l2.5,0.7c-0.6,0.9-1.4,1.6-2.4,2.2C74.7,20.8,73.4,21.1,72,21.1z M67.3,11.6h9c0-0.7-0.2-1.4-0.5-2.1
	c-0.4-0.7-0.9-1.2-1.5-1.6c-0.7-0.4-1.4-0.6-2.3-0.6c-0.8,0-1.5,0.1-2.2,0.4c-0.7,0.3-1.2,0.8-1.7,1.4C67.6,9.8,67.3,10.6,67.3,11.6
	z"/>
<path class="st1" d="M84.6,20.7c-1,0-1.7-0.1-2.2-0.3c-0.5-0.2-0.9-0.6-1.1-1.1c-0.2-0.6-0.3-1.4-0.3-2.4V0h2.6v16.4
	c0,0.8,0.1,1.3,0.2,1.6c0.2,0.3,0.6,0.4,1.3,0.4h0.6v2.3H84.6z"/>
<path class="st1" d="M91.9,20.7c-1,0-1.7-0.1-2.2-0.3c-0.5-0.2-0.9-0.6-1.1-1.1c-0.2-0.6-0.3-1.4-0.3-2.4V7.4h-2.6V5.3h2.6V1.5h2.6
	v3.9h3v2.1h-3v9c0,0.8,0.1,1.3,0.2,1.6c0.2,0.3,0.6,0.4,1.3,0.4h1.4v2.3H91.9z"/>
<path class="st1" d="M102.1,21.1c-0.9,0-1.8-0.2-2.6-0.5c-0.9-0.3-1.7-0.8-2.4-1.4c-0.7-0.7-1.3-1.5-1.7-2.5c-0.4-1-0.7-2.2-0.7-3.6
	c0-1.4,0.2-2.6,0.7-3.6c0.4-1,1-1.8,1.7-2.5c0.7-0.7,1.5-1.1,2.4-1.4c0.9-0.3,1.7-0.5,2.6-0.5c0.9,0,1.8,0.2,2.6,0.5
	c0.9,0.3,1.7,0.8,2.4,1.4c0.7,0.7,1.3,1.5,1.7,2.5c0.4,1,0.6,2.2,0.6,3.6c0,1.4-0.2,2.6-0.6,3.6c-0.4,1-1,1.8-1.7,2.5
	c-0.7,0.7-1.5,1.1-2.4,1.4C103.9,20.9,103,21.1,102.1,21.1z M102.1,18.8c0.7,0,1.5-0.2,2.2-0.6c0.7-0.4,1.3-1,1.7-1.9
	c0.5-0.8,0.7-1.9,0.7-3.2c0-1.3-0.2-2.4-0.7-3.2c-0.5-0.8-1-1.5-1.7-1.9c-0.7-0.4-1.4-0.6-2.2-0.6c-0.7,0-1.4,0.2-2.2,0.6
	c-0.7,0.4-1.3,1-1.7,1.9c-0.5,0.8-0.7,1.9-0.7,3.2c0,1.3,0.2,2.4,0.7,3.2c0.5,0.8,1,1.5,1.7,1.9C100.7,18.6,101.4,18.8,102.1,18.8z"
	/>
<path class="st1" d="M111.2,20.7V5.3h1.9l0.7,2.3c0.4-0.7,1-1.3,1.8-1.8c0.8-0.5,1.8-0.7,3.1-0.7c1.9,0,3.2,0.5,3.9,1.6
	c0.8,1.1,1.1,2.5,1.1,4.3v9.7h-2.6v-8.9c0-0.8-0.1-1.5-0.2-2.2c-0.1-0.7-0.5-1.2-0.9-1.6c-0.5-0.4-1.2-0.6-2.2-0.6
	c-1.3,0-2.3,0.4-3,1.3c-0.7,0.9-1.1,2.1-1.1,3.8v8.3H111.2z"/>
</svg>
