<?xml version="1.0" encoding="utf-8"?>
<!-- Generator: Adobe Illustrator 27.0.1, SVG Export Plug-In . SVG Version: 6.00 Build 0)  -->
<svg version="1.1" id="Layer_1" xmlns="http://www.w3.org/2000/svg" xmlns:xlink="http://www.w3.org/1999/xlink" x="0px" y="0px"
	 viewBox="0 0 128.7 28.4" style="enable-background:new 0 0 128.7 28.4;" xml:space="preserve">
<style type="text/css">
	.st0{fill:#1485E2;}
	.st1{fill:#02204C;}
</style>
<g>
	<g>
		<path class="st0" d="M2.5,22V6.6h1.9l0.8,2.8c0.6-0.9,1.3-1.6,2.2-2.2s2-0.9,3.3-0.9V9c-0.1,0-0.3,0-0.4,0C10.1,9,10,9,9.9,9
			c-1.8,0.1-3,0.8-3.7,1.8c-0.7,1.1-1,2.6-1,4.5v6.6H2.5V22z"/>
		<path class="st0" d="M12.8,27v-2.3h1.1c0.7,0,1.3-0.1,1.7-0.2c0.4-0.1,0.7-0.4,0.9-0.7c0.2-0.4,0.5-1,0.7-1.7L11.7,6.7h2.8
			l3.8,11.8l3.8-11.8h2.8l-5.5,16c-0.4,1.1-0.7,2-1.1,2.6s-0.9,1.1-1.5,1.3c-0.6,0.3-1.5,0.4-2.7,0.4H12.8z"/>
		<path class="st0" d="M29.6,22.4c-1,0-1.9-0.2-2.7-0.5c-0.8-0.4-1.4-0.9-1.9-1.5c-0.5-0.7-0.7-1.5-0.7-2.4c0-1.2,0.4-2.2,1.3-2.9
			s2.1-1.2,3.6-1.6c1.6-0.4,3.4-0.7,5.5-0.9c0-1.3-0.2-2.3-0.8-3c-0.6-0.7-1.5-1.1-2.7-1.1c-0.9,0-1.7,0.2-2.3,0.6
			c-0.6,0.4-1,1-1.1,1.7l-2.5-0.7c0.4-1.2,1.2-2.1,2.2-2.7c1.1-0.7,2.3-1,3.7-1c2.1,0,3.7,0.5,4.7,1.5s1.5,2.6,1.5,4.7v3.6
			c0,1.3,0.1,2.4,0.2,3.3c0.1,0.9,0.2,1.8,0.4,2.5h-2.5l-0.6-2.1c-0.5,0.8-1.1,1.4-2,1.8C32.1,22.1,31,22.4,29.6,22.4z M30.2,20.3
			c0.8,0,1.6-0.1,2.3-0.4c0.7-0.3,1.3-0.8,1.8-1.5s0.7-1.6,0.7-2.8v-1c-1.6,0.2-2.9,0.4-4.1,0.6c-1.2,0.2-2,0.6-2.7,1
			c-0.6,0.4-0.9,1-0.9,1.7s0.3,1.3,0.8,1.7C28.5,20.1,29.3,20.3,30.2,20.3z"/>
		<path class="st0" d="M39.8,22V6.6h1.9l0.7,2.3c0.4-0.7,1-1.3,1.8-1.8s1.8-0.7,3.1-0.7c1.9,0,3.2,0.5,3.9,1.6
			c0.8,1.1,1.1,2.5,1.1,4.3V22h-2.6v-8.9c0-0.8-0.1-1.5-0.2-2.2c-0.1-0.7-0.5-1.2-0.9-1.6c-0.5-0.4-1.2-0.6-2.2-0.6
			c-1.3,0-2.3,0.4-3,1.3s-1.1,2.1-1.1,3.8v8.3h-2.5V22z"/>
	</g>
	<path class="st1" d="M55.1,22V1.3h2.6v12.2l6.2-6.9H67l-5.8,6.3l6.6,9h-3.2l-5.1-7l-1.8,2V22H55.1z"/>
	<path class="st1" d="M74.5,22.4c-1.6,0-3-0.4-4.1-1.1s-2-1.7-2.6-2.9s-0.9-2.6-0.9-4.1c0-1.6,0.3-3,1-4.2s1.6-2.1,2.7-2.8
		s2.4-1,3.8-1c1.2,0,2.3,0.2,3.2,0.7c0.9,0.5,1.7,1.1,2.3,2c0.6,0.8,1.1,1.7,1.3,2.8c0.3,1,0.4,2.1,0.3,3.2H69.7
		c0,1.3,0.3,2.3,0.9,3c0.5,0.7,1.2,1.3,1.9,1.6c0.7,0.3,1.4,0.4,2,0.4c0.9,0,1.6-0.1,2.2-0.4s1.1-0.6,1.4-1.1l2.5,0.7
		c-0.6,0.9-1.4,1.6-2.4,2.2C77.2,22.1,75.9,22.4,74.5,22.4z M69.8,12.9h9c0-0.7-0.2-1.4-0.5-2.1c-0.4-0.7-0.9-1.2-1.5-1.6
		c-0.7-0.4-1.4-0.6-2.3-0.6c-0.8,0-1.5,0.1-2.2,0.4s-1.2,0.8-1.7,1.4C70.1,11.1,69.8,11.9,69.8,12.9z"/>
	<path class="st1" d="M87.1,22c-1,0-1.7-0.1-2.2-0.3c-0.5-0.2-0.9-0.6-1.1-1.1c-0.2-0.6-0.3-1.4-0.3-2.4V1.3h2.6v16.4
		c0,0.8,0.1,1.3,0.2,1.6c0.2,0.3,0.6,0.4,1.3,0.4h0.6V22C88.2,22,87.1,22,87.1,22z"/>
	<path class="st1" d="M94.4,22c-1,0-1.7-0.1-2.2-0.3c-0.5-0.2-0.9-0.6-1.1-1.1c-0.2-0.6-0.3-1.4-0.3-2.4V8.7h-2.6V6.6h2.6V2.8h2.6
		v3.9h3v2.1h-3v9c0,0.8,0.1,1.3,0.2,1.6c0.2,0.3,0.6,0.4,1.3,0.4h1.4v2.3L94.4,22L94.4,22z"/>
	<path class="st1" d="M104.6,22.4c-0.9,0-1.8-0.2-2.6-0.5c-0.9-0.3-1.7-0.8-2.4-1.4c-0.7-0.7-1.3-1.5-1.7-2.5
		c-0.4-1-0.7-2.2-0.7-3.6s0.2-2.6,0.7-3.6c0.4-1,1-1.8,1.7-2.5s1.5-1.1,2.4-1.4s1.7-0.5,2.6-0.5s1.8,0.2,2.6,0.5
		c0.9,0.3,1.7,0.8,2.4,1.4c0.7,0.7,1.3,1.5,1.7,2.5c0.4,1,0.6,2.2,0.6,3.6s-0.2,2.6-0.6,3.6s-1,1.8-1.7,2.5s-1.5,1.1-2.4,1.4
		C106.4,22.2,105.5,22.4,104.6,22.4z M104.6,20.1c0.7,0,1.5-0.2,2.2-0.6s1.3-1,1.7-1.9c0.5-0.8,0.7-1.9,0.7-3.2s-0.2-2.4-0.7-3.2
		c-0.5-0.8-1-1.5-1.7-1.9c-0.7-0.4-1.4-0.6-2.2-0.6c-0.7,0-1.4,0.2-2.2,0.6c-0.7,0.4-1.3,1-1.7,1.9c-0.5,0.8-0.7,1.9-0.7,3.2
		s0.2,2.4,0.7,3.2s1,1.5,1.7,1.9C103.2,19.9,103.9,20.1,104.6,20.1z"/>
	<path class="st1" d="M113.7,22V6.6h1.9l0.7,2.3c0.4-0.7,1-1.3,1.8-1.8s1.8-0.7,3.1-0.7c1.9,0,3.2,0.5,3.9,1.6
		c0.8,1.1,1.1,2.5,1.1,4.3V22h-2.6v-8.9c0-0.8-0.1-1.5-0.2-2.2s-0.5-1.2-0.9-1.6c-0.5-0.4-1.2-0.6-2.2-0.6c-1.3,0-2.3,0.4-3,1.3
		s-1.1,2.1-1.1,3.8v8.3h-2.5V22z"/>
</g>
</svg>
